<svg width="42" height="42" viewBox="0 0 42 42" fill="none" xmlns="http://www.w3.org/2000/svg">
<path d="M23.1588 0.00258374C24.6912 -0.00329652 26.2236 0.0121046 27.7555 0.0487823L28.1629 0.0634818C28.6332 0.0802812 29.0973 0.10128 29.658 0.12648C31.8923 0.231476 33.4168 0.584264 34.7544 1.10295C36.1404 1.63633 37.3079 2.3587 38.4754 3.52626C39.543 4.5754 40.3692 5.84447 40.8966 7.24524C41.4153 8.58289 41.7681 10.1095 41.8731 12.3439C41.8983 12.9024 41.9193 13.3686 41.9361 13.839L41.9487 14.2464C41.986 15.7777 42.0021 17.3093 41.997 18.841L41.9991 20.4076V23.1585C42.0042 24.6909 41.9881 26.2233 41.9508 27.7552L41.9382 28.1626C41.9214 28.633 41.9004 29.0971 41.8752 29.6578C41.7702 31.8921 41.4132 33.4166 40.8966 34.7543C40.3709 36.1566 39.5445 37.4267 38.4754 38.4754C37.4254 39.5428 36.1557 40.369 34.7544 40.8966C33.4168 41.4153 31.8923 41.7681 29.658 41.8731C29.0973 41.8983 28.6332 41.9193 28.1629 41.9361L27.7555 41.9487C26.2236 41.986 24.6912 42.0021 23.1588 41.997L21.5923 41.9991H18.8435C17.3112 42.0042 15.7788 41.9881 14.2469 41.9508L13.8395 41.9382C13.341 41.9201 12.8426 41.8991 12.3444 41.8752C10.1101 41.7702 8.58557 41.4132 7.24584 40.8966C5.84455 40.3702 4.57528 39.5439 3.52693 38.4754C2.45818 37.426 1.6312 36.1561 1.10366 34.7543C0.584982 33.4166 0.2322 31.8921 0.127205 29.6578C0.103818 29.1595 0.0828193 28.6611 0.0642084 28.1626L0.0537091 27.7552C0.0149947 26.2233 -0.00250632 24.6909 0.00121164 23.1585V18.841C-0.00464909 17.3094 0.0107518 15.7777 0.0474094 14.2464L0.0621086 13.839C0.0789078 13.3686 0.0999066 12.9024 0.125105 12.3439C0.2301 10.1074 0.582882 8.58499 1.10155 7.24524C1.62941 5.84379 2.45801 4.57506 3.52903 3.52836C4.57666 2.45898 5.84513 1.63123 7.24584 1.10295C8.58557 0.584264 10.108 0.231476 12.3444 0.12648L13.8395 0.0634818L14.2469 0.0529824C15.7781 0.0142866 17.3098 -0.00321468 18.8414 0.000483966L23.1588 0.00258374ZM21.0001 10.5022C19.609 10.4826 18.2278 10.7396 16.9368 11.2583C15.6458 11.7771 14.4708 12.5473 13.4801 13.5241C12.4894 14.501 11.7027 15.665 11.1657 16.9485C10.6287 18.232 10.3522 19.6095 10.3522 21.0008C10.3522 22.3921 10.6287 23.7696 11.1657 25.0531C11.7027 26.3367 12.4894 27.5007 13.4801 28.4775C14.4708 29.4543 15.6458 30.2245 16.9368 30.7433C18.2278 31.2621 19.609 31.5191 21.0001 31.4994C23.7848 31.4994 26.4553 30.3932 28.4244 28.4241C30.3934 26.4551 31.4996 23.7844 31.4996 20.9998C31.4996 18.2151 30.3934 15.5445 28.4244 13.5754C26.4553 11.6063 23.7848 10.5022 21.0001 10.5022ZM21.0001 14.7021C21.837 14.6867 22.6685 14.8382 23.4461 15.1477C24.2237 15.4573 24.9318 15.9187 25.5291 16.505C26.1264 17.0913 26.6009 17.7907 26.9249 18.5625C27.2488 19.3342 27.4157 20.1628 27.4159 20.9998C27.416 21.8367 27.2494 22.6653 26.9257 23.4372C26.602 24.209 26.1277 24.9087 25.5306 25.4952C24.9335 26.0817 24.2255 26.5433 23.448 26.8531C22.6705 27.1629 21.8391 27.3147 21.0022 27.2996C19.3315 27.2996 17.7291 26.6358 16.5477 25.4544C15.3663 24.273 14.7026 22.6706 14.7026 20.9998C14.7026 19.329 15.3663 17.7266 16.5477 16.5451C17.7291 15.3637 19.3315 14.7 21.0022 14.7L21.0001 14.7021ZM32.0246 7.35233C31.3471 7.37945 30.7065 7.66764 30.2367 8.15655C29.767 8.64545 29.5047 9.29715 29.5047 9.97514C29.5047 10.6531 29.767 11.3048 30.2367 11.7937C30.7065 12.2826 31.3471 12.5708 32.0246 12.598C32.7207 12.598 33.3884 12.3214 33.8806 11.8291C34.3729 11.3369 34.6494 10.6692 34.6494 9.97304C34.6494 9.27688 34.3729 8.60922 33.8806 8.11695C33.3884 7.62469 32.7207 7.34813 32.0246 7.34813V7.35233Z" fill="#F8F8F8"/>
</svg>
