<svg width="37" height="37" viewBox="0 0 37 37" fill="none" xmlns="http://www.w3.org/2000/svg">
<path d="M23.7073 0H12.5799C2.41734 0 0 2.41734 0 12.5618V23.6892C0 33.85 2.3992 36.2691 12.5618 36.2691H23.6892C33.85 36.2691 36.2691 33.8699 36.2691 23.7073V12.5799C36.2691 2.41734 33.8699 0 23.7073 0ZM29.2801 25.878H26.6342C25.6332 25.878 25.3322 25.0674 23.5369 23.2721C21.97 21.7615 21.3081 21.5729 20.911 21.5729C20.3633 21.5729 20.2128 21.7234 20.2128 22.4796V24.8589C20.2128 25.5026 20.0042 25.8798 18.3232 25.8798C16.6917 25.7702 15.1096 25.2745 13.7072 24.4337C12.3048 23.5928 11.1222 22.4308 10.2569 21.0434C8.20257 18.4864 6.77315 15.4853 6.08233 12.2789C6.08233 11.8818 6.23285 11.5227 6.98906 11.5227H9.63308C10.3131 11.5227 10.5579 11.8256 10.8245 12.5237C12.1084 16.303 14.2991 19.589 15.1877 19.589C15.5286 19.589 15.6773 19.4384 15.6773 18.5879V14.6963C15.5649 12.9209 14.6219 12.7704 14.6219 12.1284C14.634 11.9591 14.7116 11.8011 14.8382 11.6881C14.9648 11.575 15.1305 11.5157 15.3001 11.5227H19.4566C20.0242 11.5227 20.2128 11.8056 20.2128 12.4856V17.7374C20.2128 18.305 20.4576 18.4936 20.6281 18.4936C20.969 18.4936 21.2319 18.305 21.8558 17.6812C23.1957 16.0472 24.2904 14.2267 25.1055 12.2771C25.1888 12.0429 25.3465 11.8424 25.5544 11.7062C25.7623 11.57 26.0091 11.5056 26.257 11.5227H28.9029C29.6954 11.5227 29.864 11.9199 29.6954 12.4856C28.7333 14.6408 27.5429 16.6866 26.1446 18.5879C25.8599 19.0232 25.7456 19.2498 26.1446 19.7594C26.4076 20.1566 27.3342 20.9309 27.9581 21.6672C28.8646 22.5714 29.6174 23.6177 30.1868 24.7646C30.4135 25.5008 30.0345 25.878 29.2801 25.878Z" fill="white"/>
</svg>
