<svg width="55" height="32" viewBox="0 0 55 32" fill="none" xmlns="http://www.w3.org/2000/svg">
<path d="M52.7873 31.9974H46.7678C44.4904 31.9974 43.8042 30.1908 39.7218 26.19C36.1539 22.8223 34.647 22.4036 33.7445 22.4036C32.4963 22.4036 32.1558 22.7396 32.1558 24.4222V29.7256C32.1558 31.16 31.6808 32 27.8543 32C24.1421 31.7558 20.5422 30.6513 17.3511 28.7775C14.1601 26.9037 11.4693 24.3143 9.50029 21.2225C4.82505 15.5237 1.57205 8.83506 0 1.68862C0 0.804711 0.343066 0.00350671 2.06367 0.00350671H8.08052C9.62696 0.00350671 10.1838 0.67807 10.7907 2.23654C13.7121 10.6569 18.6971 17.9815 20.7212 17.9815C21.497 17.9815 21.8348 17.6455 21.8348 15.7511V7.07737C21.5788 3.12045 19.4334 2.78705 19.4334 1.35522C19.4605 0.977464 19.6369 0.624954 19.9252 0.37256C20.2135 0.120167 20.5908 -0.0122248 20.9772 0.00350671H30.4352C31.7283 0.00350671 32.1558 0.634132 32.1558 2.14867V13.8566C32.1558 15.1204 32.71 15.5391 33.1006 15.5391C33.8764 15.5391 34.4729 15.1204 35.8953 13.7299C38.9442 10.0883 41.4351 6.03107 43.2896 1.68604C43.4795 1.16436 43.8383 0.717805 44.3114 0.414491C44.7846 0.111178 45.346 -0.0322484 45.9101 0.00609105H51.9296C53.7347 0.00609105 54.1173 0.890002 53.7347 2.15125C51.5453 6.95439 48.8363 11.5137 45.6542 15.7511C45.005 16.7203 44.7464 17.2242 45.6542 18.3614C46.2506 19.2453 48.3617 20.9718 49.7789 22.613C51.8425 24.6289 53.5552 26.9602 54.851 29.5137C55.3682 31.1574 54.5053 31.9974 52.7873 31.9974Z" fill="white"/>
</svg>
