<svg width="46" height="32" viewBox="0 0 46 32" fill="none" xmlns="http://www.w3.org/2000/svg">
<path d="M18.5137 22.366L30.3496 15.8056L18.5137 9.24525V22.366ZM44.8765 5.2434C45.173 6.2712 45.3782 7.64888 45.515 9.39832C45.6747 11.1478 45.7431 12.6567 45.7431 13.9687L45.8799 15.8056C45.8799 20.5947 45.515 24.1155 44.8765 26.3679C44.3064 28.336 42.9837 29.6044 40.9312 30.1511C39.8594 30.4353 37.8981 30.6321 34.8878 30.7634C31.9231 30.9164 29.2093 30.982 26.7008 30.982L23.0747 31.1132C13.5194 31.1132 7.5672 30.7634 5.21826 30.1511C3.16579 29.6044 1.84309 28.336 1.27296 26.3679C0.976493 25.3401 0.771246 23.9624 0.634415 22.213C0.474778 20.4635 0.406362 18.9546 0.406362 17.6426L0.269531 15.8056C0.269531 11.0166 0.634415 7.49581 1.27296 5.2434C1.84309 3.27528 3.16579 2.00694 5.21826 1.46024C6.2901 1.17595 8.25135 0.979142 11.2616 0.847935C14.2263 0.694859 16.9401 0.629255 19.4487 0.629255L23.0747 0.498047C32.6301 0.498047 38.5823 0.847935 40.9312 1.46024C42.9837 2.00694 44.3064 3.27528 44.8765 5.2434Z" fill="white"/>
</svg>
